<svg width="46" height="45" viewBox="0 0 46 45" fill="none" xmlns="http://www.w3.org/2000/svg">
<path d="M39.875 16.875H28.625V5.625C28.625 4.13316 28.0324 2.70242 26.9775 1.64752C25.9226 0.592632 24.4918 0 23 0C21.5082 0 20.0774 0.592632 19.0225 1.64752C17.9676 2.70242 17.375 4.13316 17.375 5.625L17.5747 16.875H6.125C4.63316 16.875 3.20242 17.4676 2.14752 18.5225C1.09263 19.5774 0.5 21.0082 0.5 22.5C0.5 23.9918 1.09263 25.4226 2.14752 26.4775C3.20242 27.5324 4.63316 28.125 6.125 28.125L17.5747 27.9253L17.375 39.375C17.375 40.8668 17.9676 42.2976 19.0225 43.3525C20.0774 44.4074 21.5082 45 23 45C24.4918 45 25.9226 44.4074 26.9775 43.3525C28.0324 42.2976 28.625 40.8668 28.625 39.375V27.9253L39.875 28.125C41.3668 28.125 42.7976 27.5324 43.8525 26.4775C44.9074 25.4226 45.5 23.9918 45.5 22.5C45.5 21.0082 44.9074 19.5774 43.8525 18.5225C42.7976 17.4676 41.3668 16.875 39.875 16.875Z" fill="white"/>
</svg>
